<?xml version="1.0" encoding="utf-8"?>
<!-- Generator: Adobe Illustrator 26.3.1, SVG Export Plug-In . SVG Version: 6.00 Build 0)  -->
<svg version="1.1" id="Layer_1" xmlns="http://www.w3.org/2000/svg" xmlns:xlink="http://www.w3.org/1999/xlink" x="0px" y="0px"
	 viewBox="0 0 1440 1440" style="enable-background:new 0 0 1440 1440;" xml:space="preserve">
<style type="text/css">
	.st0{fill:#B31F29;}
</style>
<g>
	<path class="st0" d="M632.59,144.45h-3.2c-18.17,0-32.91,14.73-32.91,32.91v123.49c0,10.71-6.05,20.51-15.63,25.31l-33,11.18
		c-18.77,6.36-31.41,23.98-31.41,43.8v289.85c0,10.32,10.63,17.22,20.06,13.01l45.92-20.5c7.14-3.19,15.19,2.04,15.19,9.86v131.55
		c0,10.73-6.34,20.45-16.16,24.79l-98.85,40.27c-10.86,4.43-13.52,18.59-5.01,26.66l143.46,144.06c5.73,5.75,15.55,1.69,15.55-6.42
		v-885.8C636.61,146.25,634.81,144.45,632.59,144.45z"/>
	<path class="st0" d="M783.88,239.18l-83.69,36.99c-12.71,5.62-20.9,18.2-20.9,32.09v772.97c0,6.69,2.64,13.11,7.34,17.87
		l25.55,25.84c3.11,3.14,8.46,0.94,8.46-3.48V964.34c0-12.53,7.55-23.82,19.13-28.61l41.86-17.3c14-5.79,23.13-19.44,23.13-34.59
		V252.78C804.76,242.03,793.71,234.83,783.88,239.18z"/>
	<path class="st0" d="M946.56,339.78l-83.69,36.99c-12.71,5.62-20.9,18.2-20.9,32.09v841.5c0,6.69,2.64,13.11,7.34,17.87
		l25.55,25.84c3.11,3.14,8.46,0.94,8.46-3.48v-225.66c0-12.53,7.55-23.82,19.13-28.61l41.86-17.3c14-5.79,23.13-19.44,23.13-34.59
		V353.38C967.44,342.63,956.39,335.44,946.56,339.78z"/>
</g>
</svg>
